<?xml version="1.0" encoding="utf-8"?>
<!-- Generator: Adobe Illustrator 24.0.0, SVG Export Plug-In . SVG Version: 6.00 Build 0)  -->
<svg version="1.1"
	 id="Layer_1" text-rendering="geometricPrecision" image-rendering="optimizeQuality" shape-rendering="geometricPrecision" xmlns:xodm="http://www.corel.com/coreldraw/odm/2003"
	 xmlns="http://www.w3.org/2000/svg" xmlns:xlink="http://www.w3.org/1999/xlink" x="0px" y="0px" viewBox="0 0 612 612"
	 style="enable-background:new 0 0 612 612;" xml:space="preserve">
<style type="text/css">
	.st0{fill-rule:evenodd;clip-rule:evenodd;fill:#FF9933;}
	.st1{fill:#FFFFFF;}
</style>
<g id="Layer_x0020_1">
	<g id="_2840580173648">
		<path class="st0" d="M447.3,34.6c149.9,78,208.1,262.8,130.1,412.6c-78,149.9-262.8,208.1-412.6,130.1
			C14.9,499.4-43.4,314.6,34.6,164.7C112.6,14.9,297.4-43.4,447.3,34.6L447.3,34.6z"/>
		<path class="st1" d="M424.5,414.7c-4.8,5.2-9.8,10.1-15.2,14.5c-5,4.2-10.7,8.3-17,12.3c-18.6,11.8-38.6,19.4-59,22.9l-14.2,64
			l-41.4-9.2l11.8-53.3c-6.2-0.6-12.3-1.6-18.4-3c-7.9-1.8-15.7-4.1-23.3-7l-12,54.1l-41.4-9.2l14.7-66.4
			c-14.9-11.3-28.2-25.3-38.8-42c-23.9-37.4-30.3-81-21.4-121.2c8.9-40.2,33.1-77,70.6-100.8c16.7-10.7,34.6-17.8,53-21.7l14.7-66.4
			l41.4,9.2l-12,54.1c8.1,0.5,16.1,1.7,24,3.5c6.1,1.3,12.1,3,17.9,5.1l11.8-53.3L412,110l-14.2,64c17,11.8,32,27.1,43.8,45.7
			c4.1,6.5,7.6,12.6,10.2,18.4c2.9,6.3,5.5,12.9,7.6,19.6l-66.6,21c-1.2-3.8-2.6-7.5-4.3-11.1c-1.9-4.2-3.8-7.7-5.6-10.5
			c-13.5-21.2-34.4-35-57.1-40c-22.8-5.1-47.5-1.4-68.8,12.1c-21.2,13.5-35,34.4-40,57.1c-5.1,22.8-1.4,47.5,12.1,68.8
			c13.5,21.2,34.4,35,57.1,40c22.8,5.1,47.5,1.4,68.8-12.1c3-1.9,6.2-4.3,9.6-7.1c3.1-2.6,6-5.3,8.6-8.3L424.5,414.7L424.5,414.7z"
			/>
	</g>
</g>
</svg>
